<svg width="12" height="10" viewBox="0 0 12 10" fill="none" xmlns="http://www.w3.org/2000/svg">
<path fill-rule="evenodd" clip-rule="evenodd" d="M9.08638 1.45104V8.425C9.08638 8.65972 8.86772 8.85 8.59799 8.85C8.32825 8.85 8.10959 8.65972 8.10959 8.425V1.45104L6.645 2.72552C6.45427 2.89149 6.14504 2.89149 5.95431 2.72552C5.76358 2.55955 5.76358 2.29045 5.95431 2.12448L8.25264 0.12448C8.44337 -0.0414934 8.7526 -0.0414934 8.94333 0.12448L11.2417 2.12448C11.4324 2.29045 11.4324 2.55955 11.2417 2.72552C11.0509 2.89149 10.7417 2.89149 10.551 2.72552L9.08638 1.45104ZM3.34055 1.425C3.34055 1.19028 3.12189 1 2.85216 1C2.58242 1 2.36376 1.19028 2.36376 1.425V8.39896L0.899173 7.12448C0.708443 6.95851 0.399208 6.95851 0.208477 7.12448C0.0177471 7.29045 0.0177471 7.55955 0.208477 7.72552L2.50681 9.72552C2.69754 9.89149 3.00677 9.89149 3.1975 9.72552L5.49584 7.72552C5.68657 7.55955 5.68657 7.29045 5.49584 7.12448C5.30511 6.95851 4.99587 6.95851 4.80514 7.12448L3.34055 8.39896V1.425Z" fill="#7C8DB5"/>
</svg>
