<svg width="20" height="20" viewBox="0 0 20 20" fill="none" xmlns="http://www.w3.org/2000/svg">
<path d="M12.5001 15.2019C12.6508 15.0511 12.7432 14.8416 12.7429 14.6115L12.7429 14.5102C12.7429 14.0494 12.3699 13.6764 11.9097 13.677L7.35673 13.677L15.0585 5.97522C15.3838 5.64995 15.3838 5.12198 15.0585 4.79671C14.7332 4.47144 14.2052 4.47144 13.88 4.79671L6.17822 12.4985V7.94554C6.17822 7.48475 5.80519 7.11171 5.34498 7.1123H5.2437C4.7829 7.1123 4.40987 7.48534 4.41046 7.94554V14.6115C4.41046 15.0723 4.78349 15.4453 5.2437 15.4447L11.9097 15.4447C12.1401 15.4447 12.3493 15.3527 12.5001 15.2019Z" fill="#279A44"/>
</svg>
